<?xml version="1.0" standalone="no"?>
<!DOCTYPE svg PUBLIC "-//W3C//DTD SVG 20010904//EN"
 "http://www.w3.org/TR/2001/REC-SVG-20010904/DTD/svg10.dtd">
<svg version="1.0" xmlns="http://www.w3.org/2000/svg"
 width="512.000000pt" height="512.000000pt" viewBox="0 0 512.000000 512.000000"
 preserveAspectRatio="xMidYMid meet">

<g transform="translate(0.000000,512.000000) scale(0.100000,-0.100000)"
fill="#000000" stroke="none">
<path d="M245 4899 c-122 -121 -228 -231 -235 -244 -7 -14 -10 -35 -6 -52 5
-19 120 -141 354 -376 191 -192 359 -357 373 -367 17 -12 66 -24 146 -36 l121
-17 516 -516 516 -516 -423 -423 -424 -424 -83 13 c-104 15 -246 7 -360 -21
-100 -25 -248 -93 -334 -154 -71 -51 -188 -170 -235 -239 -53 -78 -119 -226
-143 -323 -32 -126 -32 -332 0 -458 27 -107 95 -254 156 -340 131 -181 342
-323 562 -378 126 -31 332 -31 458 0 173 43 343 141 463 265 138 143 218 293
264 497 14 64 18 260 6 340 l-8 55 636 635 635 635 849 -850 c605 -606 855
-863 871 -895 82 -163 57 -332 -67 -451 -123 -119 -283 -140 -443 -59 -32 16
-272 249 -827 803 -711 710 -785 780 -814 780 -40 0 -69 -32 -69 -77 0 -28 78
-109 787 -817 824 -822 823 -821 953 -865 76 -26 234 -26 310 0 313 105 455
440 313 736 -35 73 -65 103 -897 938 l-861 862 46 46 46 46 80 -25 c525 -166
1112 44 1430 513 79 116 156 305 188 460 43 204 23 489 -47 663 -15 39 -59 60
-95 47 -15 -6 -194 -177 -398 -380 l-370 -368 -240 64 c-132 36 -243 68 -247
72 -4 4 -36 115 -72 247 l-64 240 368 370 c203 204 374 383 380 398 7 22 6 35
-5 57 -12 24 -29 34 -93 54 -479 151 -1021 -12 -1346 -406 -207 -251 -309
-557 -292 -878 5 -106 38 -283 66 -354 11 -29 9 -32 -142 -183 l-153 -153
-516 516 c-508 508 -517 517 -523 563 -3 25 -11 82 -17 126 l-11 80 -357 358
c-196 197 -368 365 -383 373 -15 8 -37 14 -49 14 -15 0 -89 -67 -244 -221z
m3740 60 c50 -6 93 -14 97 -18 4 -3 -131 -145 -300 -314 l-307 -307 -185 186
-185 185 30 25 c229 192 540 280 850 243z m-3430 -79 l50 -50 -158 -158 -157
-157 -52 53 -53 52 155 155 c85 85 157 155 160 155 3 0 28 -23 55 -50z m372
-372 l211 -213 11 -85 c7 -47 14 -101 18 -120 4 -30 79 -109 539 -570 l534
-535 -53 -53 -52 -52 -530 530 c-423 424 -537 532 -565 539 -19 5 -76 15 -126
21 l-92 13 -213 213 -214 214 155 155 c85 85 157 155 160 155 3 0 100 -96 217
-212z m2281 -131 l202 -202 76 -285 c56 -210 81 -291 97 -307 27 -26 617 -187
651 -177 12 3 175 159 362 346 273 272 343 337 348 322 15 -53 27 -209 21
-294 -37 -538 -428 -966 -955 -1046 -178 -26 -351 -11 -523 46 -48 17 -100 30
-115 30 -23 0 -160 -133 -815 -788 -519 -519 -787 -794 -787 -807 0 -11 7 -56
15 -100 19 -104 19 -172 0 -281 -42 -236 -189 -450 -393 -569 -324 -191 -731
-138 -998 129 -324 324 -324 838 0 1162 135 135 293 212 489 237 85 11 116 9
316 -21 33 -4 48 10 822 784 876 876 809 797 769 903 -107 280 -88 607 50 886
46 92 142 235 158 235 4 0 98 -91 210 -203z"/>
<path d="M2720 3023 c-8 -3 -273 -262 -587 -577 -504 -503 -573 -575 -573
-601 0 -25 20 -51 128 -158 106 -106 132 -127 157 -127 26 0 101 71 604 574
509 510 574 578 574 605 0 43 -28 71 -72 71 -34 0 -64 -28 -571 -535 l-535
-535 -53 52 -52 53 535 535 c507 507 535 537 535 571 0 49 -47 87 -90 72z"/>
<path d="M819 1550 c-157 -43 -295 -83 -306 -89 -27 -14 -31 -25 -118 -351
-49 -184 -74 -294 -70 -310 8 -31 427 -454 467 -471 24 -10 64 -2 315 65 328
88 340 92 354 118 24 44 170 614 164 638 -7 28 -414 443 -457 466 -15 8 -35
14 -45 13 -10 -1 -147 -36 -304 -79z m469 -263 l182 -182 -65 -244 c-36 -135
-67 -246 -68 -248 -2 -1 -113 -32 -248 -68 l-244 -65 -182 183 -183 182 65
244 c36 135 67 246 68 248 3 2 474 131 487 132 3 1 87 -81 188 -182z"/>
<path d="M3153 2195 c-28 -20 -37 -59 -19 -93 8 -15 356 -368 773 -784 681
-680 762 -758 790 -758 43 0 74 28 75 69 1 31 -47 81 -773 807 -816 815 -794
796 -846 759z"/>
<path d="M2953 1990 c-25 -10 -43 -39 -43 -71 0 -15 41 -63 127 -151 109 -110
131 -128 158 -128 39 0 75 36 75 75 0 45 -245 288 -287 284 -4 0 -18 -4 -30
-9z"/>
<path d="M3355 1550 c-10 -11 -18 -34 -18 -51 0 -27 63 -94 560 -591 524 -524
563 -561 594 -560 41 1 69 32 69 76 0 28 -58 89 -558 588 -529 530 -559 558
-593 558 -23 0 -42 -7 -54 -20z"/>
</g>
</svg>
